<?xml version="1.0" encoding="utf-8"?>
<!-- Generator: Adobe Illustrator 24.3.0, SVG Export Plug-In . SVG Version: 6.00 Build 0)  -->
<svg version="1.1" id="level1" xmlns="http://www.w3.org/2000/svg" xmlns:xlink="http://www.w3.org/1999/xlink" x="0px" y="0px"
	 viewBox="0 0 30 15" style="enable-background:new 0 0 30 15;" xml:space="preserve">
<style type="text/css">
	.st0{fill:#3FA9F5;stroke:#DDDDDD;stroke-width:1.5;stroke-miterlimit:10;}
	.st1{fill:none;stroke:#FFFFFF;stroke-width:1.5;stroke-linecap:round;stroke-miterlimit:10;}
	.st2{fill:#F2F2F2;stroke:#DDDDDD;stroke-miterlimit:10;}
</style>
<g>
	<path class="st0" d="M27.5,14.5h-10c-1.1,0-2-0.9-2-2v-10c0-1.1,0.9-2,2-2h10c1.1,0,2,0.9,2,2v10C29.5,13.6,28.6,14.5,27.5,14.5z"
		/>
	<polyline class="st1" points="17.7,7.1 21.1,10.6 27.3,4.4 	"/>
</g>
<path class="st2" d="M12.5,14.5h-10c-1.1,0-2-0.9-2-2v-10c0-1.1,0.9-2,2-2h10c1.1,0,2,0.9,2,2v10C14.5,13.6,13.6,14.5,12.5,14.5z"/>
</svg>
