<?xml version="1.0" encoding="utf-8"?>
<!-- Generator: Adobe Illustrator 24.3.0, SVG Export Plug-In . SVG Version: 6.00 Build 0)  -->
<svg version="1.1" id="圖層_1" xmlns="http://www.w3.org/2000/svg" xmlns:xlink="http://www.w3.org/1999/xlink" x="0px" y="0px"
	 viewBox="0 0 280 280" style="enable-background:new 0 0 280 280;" xml:space="preserve">
<g id="quickmark" transform="translate(40,40)">
	<rect x="-25" y="-25" width="10" height="10"/>
	<rect x="-15" y="-25" width="10" height="10"/>
	<rect x="-5" y="-25" width="10" height="10"/>
	<rect x="5" y="-25" width="10" height="10"/>
	<rect x="15" y="-25" width="10" height="10"/>
	<rect x="25" y="-25" width="10" height="10"/>
	<rect x="35" y="-25" width="10" height="10"/>
	<rect x="65" y="-25" width="10" height="10"/>
	<rect x="75" y="-25" width="10" height="10"/>
	<rect x="95" y="-25" width="10" height="10"/>
	<rect x="115" y="-25" width="10" height="10"/>
	<rect x="125" y="-25" width="10" height="10"/>
	<rect x="155" y="-25" width="10" height="10"/>
	<rect x="165" y="-25" width="10" height="10"/>
	<rect x="175" y="-25" width="10" height="10"/>
	<rect x="185" y="-25" width="10" height="10"/>
	<rect x="195" y="-25" width="10" height="10"/>
	<rect x="205" y="-25" width="10" height="10"/>
	<rect x="215" y="-25" width="10" height="10"/>
	<rect x="-25" y="-15" width="10" height="10"/>
	<rect x="35" y="-15" width="10" height="10"/>
	<rect x="55" y="-15" width="10" height="10"/>
	<rect x="105" y="-15" width="10" height="10"/>
	<rect x="115" y="-15" width="10" height="10"/>
	<rect x="125" y="-15" width="10" height="10"/>
	<rect x="155" y="-15" width="10" height="10"/>
	<rect x="215" y="-15" width="10" height="10"/>
	<rect x="-25" y="-5" width="10" height="10"/>
	<rect x="-5" y="-5" width="10" height="10"/>
	<rect x="5" y="-5" width="10" height="10"/>
	<rect x="15" y="-5" width="10" height="10"/>
	<rect x="35" y="-5" width="10" height="10"/>
	<rect x="95" y="-5" width="10" height="10"/>
	<rect x="155" y="-5" width="10" height="10"/>
	<rect x="175" y="-5" width="10" height="10"/>
	<rect x="185" y="-5" width="10" height="10"/>
	<rect x="195" y="-5" width="10" height="10"/>
	<rect x="215" y="-5" width="10" height="10"/>
	<rect x="-25" y="5" width="10" height="10"/>
	<rect x="-5" y="5" width="10" height="10"/>
	<rect x="5" y="5" width="10" height="10"/>
	<rect x="15" y="5" width="10" height="10"/>
	<rect x="35" y="5" width="10" height="10"/>
	<rect x="75" y="5" width="10" height="10"/>
	<rect x="95" y="5" width="10" height="10"/>
	<rect x="155" y="5" width="10" height="10"/>
	<rect x="175" y="5" width="10" height="10"/>
	<rect x="185" y="5" width="10" height="10"/>
	<rect x="195" y="5" width="10" height="10"/>
	<rect x="215" y="5" width="10" height="10"/>
	<rect x="-25" y="15" width="10" height="10"/>
	<rect x="-5" y="15" width="10" height="10"/>
	<rect x="5" y="15" width="10" height="10"/>
	<rect x="15" y="15" width="10" height="10"/>
	<rect x="35" y="15" width="10" height="10"/>
	<rect x="55" y="15" width="10" height="10"/>
	<rect x="75" y="15" width="10" height="10"/>
	<rect x="85" y="15" width="10" height="10"/>
	<rect x="95" y="15" width="10" height="10"/>
	<rect x="105" y="15" width="10" height="10"/>
	<rect x="115" y="15" width="10" height="10"/>
	<rect x="125" y="15" width="10" height="10"/>
	<rect x="155" y="15" width="10" height="10"/>
	<rect x="175" y="15" width="10" height="10"/>
	<rect x="185" y="15" width="10" height="10"/>
	<rect x="195" y="15" width="10" height="10"/>
	<rect x="215" y="15" width="10" height="10"/>
	<rect x="-25" y="25" width="10" height="10"/>
	<rect x="35" y="25" width="10" height="10"/>
	<rect x="65" y="25" width="10" height="10"/>
	<rect x="75" y="25" width="10" height="10"/>
	<rect x="115" y="25" width="10" height="10"/>
	<rect x="125" y="25" width="10" height="10"/>
	<rect x="135" y="25" width="10" height="10"/>
	<rect x="155" y="25" width="10" height="10"/>
	<rect x="215" y="25" width="10" height="10"/>
	<rect x="-25" y="35" width="10" height="10"/>
	<rect x="-15" y="35" width="10" height="10"/>
	<rect x="-5" y="35" width="10" height="10"/>
	<rect x="5" y="35" width="10" height="10"/>
	<rect x="15" y="35" width="10" height="10"/>
	<rect x="25" y="35" width="10" height="10"/>
	<rect x="35" y="35" width="10" height="10"/>
	<rect x="55" y="35" width="10" height="10"/>
	<rect x="75" y="35" width="10" height="10"/>
	<rect x="95" y="35" width="10" height="10"/>
	<rect x="115" y="35" width="10" height="10"/>
	<rect x="135" y="35" width="10" height="10"/>
	<rect x="155" y="35" width="10" height="10"/>
	<rect x="165" y="35" width="10" height="10"/>
	<rect x="175" y="35" width="10" height="10"/>
	<rect x="185" y="35" width="10" height="10"/>
	<rect x="195" y="35" width="10" height="10"/>
	<rect x="205" y="35" width="10" height="10"/>
	<rect x="215" y="35" width="10" height="10"/>
	<rect x="65" y="45" width="10" height="10"/>
	<rect x="75" y="45" width="10" height="10"/>
	<rect x="95" y="45" width="10" height="10"/>
	<rect x="105" y="45" width="10" height="10"/>
	<rect x="135" y="45" width="10" height="10"/>
	<rect x="-25" y="55" width="10" height="10"/>
	<rect x="-5" y="55" width="10" height="10"/>
	<rect x="15" y="55" width="10" height="10"/>
	<rect x="35" y="55" width="10" height="10"/>
	<rect x="65" y="55" width="10" height="10"/>
	<rect x="85" y="55" width="10" height="10"/>
	<rect x="105" y="55" width="10" height="10"/>
	<rect x="135" y="55" width="10" height="10"/>
	<rect x="175" y="55" width="10" height="10"/>
	<rect x="205" y="55" width="10" height="10"/>
	<rect x="-5" y="65" width="10" height="10"/>
	<rect x="5" y="65" width="10" height="10"/>
	<rect x="25" y="65" width="10" height="10"/>
	<rect x="45" y="65" width="10" height="10"/>
	<rect x="95" y="65" width="10" height="10"/>
	<rect x="105" y="65" width="10" height="10"/>
	<rect x="135" y="65" width="10" height="10"/>
	<rect x="155" y="65" width="10" height="10"/>
	<rect x="215" y="65" width="10" height="10"/>
	<rect x="-25" y="75" width="10" height="10"/>
	<rect x="5" y="75" width="10" height="10"/>
	<rect x="15" y="75" width="10" height="10"/>
	<rect x="35" y="75" width="10" height="10"/>
	<rect x="55" y="75" width="10" height="10"/>
	<rect x="65" y="75" width="10" height="10"/>
	<rect x="105" y="75" width="10" height="10"/>
	<rect x="115" y="75" width="10" height="10"/>
	<rect x="145" y="75" width="10" height="10"/>
	<rect x="155" y="75" width="10" height="10"/>
	<rect x="165" y="75" width="10" height="10"/>
	<rect x="195" y="75" width="10" height="10"/>
	<rect x="205" y="75" width="10" height="10"/>
	<rect x="215" y="75" width="10" height="10"/>
	<rect x="-25" y="85" width="10" height="10"/>
	<rect x="5" y="85" width="10" height="10"/>
	<rect x="15" y="85" width="10" height="10"/>
	<rect x="25" y="85" width="10" height="10"/>
	<rect x="65" y="85" width="10" height="10"/>
	<rect x="85" y="85" width="10" height="10"/>
	<rect x="95" y="85" width="10" height="10"/>
	<rect x="105" y="85" width="10" height="10"/>
	<rect x="115" y="85" width="10" height="10"/>
	<rect x="135" y="85" width="10" height="10"/>
	<rect x="155" y="85" width="10" height="10"/>
	<rect x="205" y="85" width="10" height="10"/>
	<rect x="-15" y="95" width="10" height="10"/>
	<rect x="15" y="95" width="10" height="10"/>
	<rect x="35" y="95" width="10" height="10"/>
	<rect x="55" y="95" width="10" height="10"/>
	<rect x="105" y="95" width="10" height="10"/>
	<rect x="125" y="95" width="10" height="10"/>
	<rect x="135" y="95" width="10" height="10"/>
	<rect x="145" y="95" width="10" height="10"/>
	<rect x="155" y="95" width="10" height="10"/>
	<rect x="165" y="95" width="10" height="10"/>
	<rect x="185" y="95" width="10" height="10"/>
	<rect x="205" y="95" width="10" height="10"/>
	<rect x="215" y="95" width="10" height="10"/>
	<rect x="-15" y="105" width="10" height="10"/>
	<rect x="-5" y="105" width="10" height="10"/>
	<rect x="5" y="105" width="10" height="10"/>
	<rect x="25" y="105" width="10" height="10"/>
	<rect x="85" y="105" width="10" height="10"/>
	<rect x="135" y="105" width="10" height="10"/>
	<rect x="155" y="105" width="10" height="10"/>
	<rect x="185" y="105" width="10" height="10"/>
	<rect x="215" y="105" width="10" height="10"/>
	<rect x="-15" y="115" width="10" height="10"/>
	<rect x="15" y="115" width="10" height="10"/>
	<rect x="25" y="115" width="10" height="10"/>
	<rect x="35" y="115" width="10" height="10"/>
	<rect x="55" y="115" width="10" height="10"/>
	<rect x="75" y="115" width="10" height="10"/>
	<rect x="105" y="115" width="10" height="10"/>
	<rect x="145" y="115" width="10" height="10"/>
	<rect x="155" y="115" width="10" height="10"/>
	<rect x="165" y="115" width="10" height="10"/>
	<rect x="195" y="115" width="10" height="10"/>
	<rect x="205" y="115" width="10" height="10"/>
	<rect x="215" y="115" width="10" height="10"/>
	<rect x="-25" y="125" width="10" height="10"/>
	<rect x="5" y="125" width="10" height="10"/>
	<rect x="65" y="125" width="10" height="10"/>
	<rect x="85" y="125" width="10" height="10"/>
	<rect x="105" y="125" width="10" height="10"/>
	<rect x="115" y="125" width="10" height="10"/>
	<rect x="135" y="125" width="10" height="10"/>
	<rect x="155" y="125" width="10" height="10"/>
	<rect x="175" y="125" width="10" height="10"/>
	<rect x="205" y="125" width="10" height="10"/>
	<rect x="-15" y="135" width="10" height="10"/>
	<rect x="-5" y="135" width="10" height="10"/>
	<rect x="5" y="135" width="10" height="10"/>
	<rect x="15" y="135" width="10" height="10"/>
	<rect x="25" y="135" width="10" height="10"/>
	<rect x="35" y="135" width="10" height="10"/>
	<rect x="45" y="135" width="10" height="10"/>
	<rect x="55" y="135" width="10" height="10"/>
	<rect x="95" y="135" width="10" height="10"/>
	<rect x="105" y="135" width="10" height="10"/>
	<rect x="125" y="135" width="10" height="10"/>
	<rect x="135" y="135" width="10" height="10"/>
	<rect x="145" y="135" width="10" height="10"/>
	<rect x="155" y="135" width="10" height="10"/>
	<rect x="165" y="135" width="10" height="10"/>
	<rect x="175" y="135" width="10" height="10"/>
	<rect x="185" y="135" width="10" height="10"/>
	<rect x="55" y="145" width="10" height="10"/>
	<rect x="85" y="145" width="10" height="10"/>
	<rect x="95" y="145" width="10" height="10"/>
	<rect x="125" y="145" width="10" height="10"/>
	<rect x="135" y="145" width="10" height="10"/>
	<rect x="175" y="145" width="10" height="10"/>
	<rect x="185" y="145" width="10" height="10"/>
	<rect x="205" y="145" width="10" height="10"/>
	<rect x="215" y="145" width="10" height="10"/>
	<rect x="-25" y="155" width="10" height="10"/>
	<rect x="-15" y="155" width="10" height="10"/>
	<rect x="-5" y="155" width="10" height="10"/>
	<rect x="5" y="155" width="10" height="10"/>
	<rect x="15" y="155" width="10" height="10"/>
	<rect x="25" y="155" width="10" height="10"/>
	<rect x="35" y="155" width="10" height="10"/>
	<rect x="75" y="155" width="10" height="10"/>
	<rect x="85" y="155" width="10" height="10"/>
	<rect x="95" y="155" width="10" height="10"/>
	<rect x="125" y="155" width="10" height="10"/>
	<rect x="135" y="155" width="10" height="10"/>
	<rect x="155" y="155" width="10" height="10"/>
	<rect x="175" y="155" width="10" height="10"/>
	<rect x="185" y="155" width="10" height="10"/>
	<rect x="205" y="155" width="10" height="10"/>
	<rect x="215" y="155" width="10" height="10"/>
	<rect x="-25" y="165" width="10" height="10"/>
	<rect x="35" y="165" width="10" height="10"/>
	<rect x="65" y="165" width="10" height="10"/>
	<rect x="75" y="165" width="10" height="10"/>
	<rect x="95" y="165" width="10" height="10"/>
	<rect x="105" y="165" width="10" height="10"/>
	<rect x="115" y="165" width="10" height="10"/>
	<rect x="135" y="165" width="10" height="10"/>
	<rect x="175" y="165" width="10" height="10"/>
	<rect x="185" y="165" width="10" height="10"/>
	<rect x="205" y="165" width="10" height="10"/>
	<rect x="215" y="165" width="10" height="10"/>
	<rect x="-25" y="175" width="10" height="10"/>
	<rect x="-5" y="175" width="10" height="10"/>
	<rect x="5" y="175" width="10" height="10"/>
	<rect x="15" y="175" width="10" height="10"/>
	<rect x="35" y="175" width="10" height="10"/>
	<rect x="55" y="175" width="10" height="10"/>
	<rect x="65" y="175" width="10" height="10"/>
	<rect x="75" y="175" width="10" height="10"/>
	<rect x="85" y="175" width="10" height="10"/>
	<rect x="115" y="175" width="10" height="10"/>
	<rect x="135" y="175" width="10" height="10"/>
	<rect x="145" y="175" width="10" height="10"/>
	<rect x="155" y="175" width="10" height="10"/>
	<rect x="165" y="175" width="10" height="10"/>
	<rect x="175" y="175" width="10" height="10"/>
	<rect x="185" y="175" width="10" height="10"/>
	<rect x="205" y="175" width="10" height="10"/>
	<rect x="215" y="175" width="10" height="10"/>
	<rect x="-25" y="185" width="10" height="10"/>
	<rect x="-5" y="185" width="10" height="10"/>
	<rect x="5" y="185" width="10" height="10"/>
	<rect x="15" y="185" width="10" height="10"/>
	<rect x="35" y="185" width="10" height="10"/>
	<rect x="75" y="185" width="10" height="10"/>
	<rect x="85" y="185" width="10" height="10"/>
	<rect x="135" y="185" width="10" height="10"/>
	<rect x="145" y="185" width="10" height="10"/>
	<rect x="165" y="185" width="10" height="10"/>
	<rect x="175" y="185" width="10" height="10"/>
	<rect x="185" y="185" width="10" height="10"/>
	<rect x="195" y="185" width="10" height="10"/>
	<rect x="-25" y="195" width="10" height="10"/>
	<rect x="-5" y="195" width="10" height="10"/>
	<rect x="5" y="195" width="10" height="10"/>
	<rect x="15" y="195" width="10" height="10"/>
	<rect x="35" y="195" width="10" height="10"/>
	<rect x="55" y="195" width="10" height="10"/>
	<rect x="65" y="195" width="10" height="10"/>
	<rect x="75" y="195" width="10" height="10"/>
	<rect x="105" y="195" width="10" height="10"/>
	<rect x="125" y="195" width="10" height="10"/>
	<rect x="135" y="195" width="10" height="10"/>
	<rect x="175" y="195" width="10" height="10"/>
	<rect x="215" y="195" width="10" height="10"/>
	<rect x="-25" y="205" width="10" height="10"/>
	<rect x="35" y="205" width="10" height="10"/>
	<rect x="65" y="205" width="10" height="10"/>
	<rect x="75" y="205" width="10" height="10"/>
	<rect x="85" y="205" width="10" height="10"/>
	<rect x="125" y="205" width="10" height="10"/>
	<rect x="135" y="205" width="10" height="10"/>
	<rect x="155" y="205" width="10" height="10"/>
	<rect x="175" y="205" width="10" height="10"/>
	<rect x="185" y="205" width="10" height="10"/>
	<rect x="205" y="205" width="10" height="10"/>
	<rect x="-25" y="215" width="10" height="10"/>
	<rect x="-15" y="215" width="10" height="10"/>
	<rect x="-5" y="215" width="10" height="10"/>
	<rect x="5" y="215" width="10" height="10"/>
	<rect x="15" y="215" width="10" height="10"/>
	<rect x="25" y="215" width="10" height="10"/>
	<rect x="35" y="215" width="10" height="10"/>
	<rect x="55" y="215" width="10" height="10"/>
	<rect x="65" y="215" width="10" height="10"/>
	<rect x="75" y="215" width="10" height="10"/>
	<rect x="95" y="215" width="10" height="10"/>
	<rect x="125" y="215" width="10" height="10"/>
	<rect x="135" y="215" width="10" height="10"/>
	<rect x="165" y="215" width="10" height="10"/>
	<rect x="205" y="215" width="10" height="10"/>
	<rect x="215" y="215" width="10" height="10"/>
</g>
</svg>
