<?xml version="1.0" encoding="utf-8"?>
<!-- Generator: Adobe Illustrator 24.3.0, SVG Export Plug-In . SVG Version: 6.00 Build 0)  -->
<svg version="1.1" id="圖層_1" xmlns="http://www.w3.org/2000/svg" xmlns:xlink="http://www.w3.org/1999/xlink" x="0px" y="0px"
	 viewBox="0 0 150 61" style="enable-background:new 0 0 150 61;" xml:space="preserve">
<style type="text/css">
	.st0{fill:url(#SVGID_1_);}
	.st1{fill:url(#SVGID_2_);}
	.st2{fill:url(#SVGID_3_);}
	.st3{fill:url(#SVGID_4_);}
	.st4{fill:url(#SVGID_5_);}
	.st5{fill:url(#SVGID_6_);}
	.st6{fill:url(#SVGID_7_);}
	.st7{fill:url(#SVGID_8_);}
	.st8{fill:url(#SVGID_9_);}
</style>
<g>
	
		<linearGradient id="SVGID_1_" gradientUnits="userSpaceOnUse" x1="130.5" y1="47.8645" x2="130.5" y2="2.1874" gradientTransform="matrix(1 0 0 -1 0 62)">
		<stop  offset="0" style="stop-color:#D9BDA0"/>
		<stop  offset="0.3799" style="stop-color:#CBAB8B"/>
		<stop  offset="1" style="stop-color:#A6896F"/>
	</linearGradient>
	<path class="st0" d="M130.5,17c-9.6,0-17.3,7.8-17.3,17.4s7.8,17.4,17.3,17.4s17.3-7.8,17.3-17.4S140.1,17,130.5,17z M130.5,44.2
		c-5.4,0-9.7-4.4-9.7-9.8s4.4-9.8,9.7-9.8c5.4,0,9.7,4.4,9.7,9.8S135.9,44.2,130.5,44.2z"/>
	
		<linearGradient id="SVGID_2_" gradientUnits="userSpaceOnUse" x1="78.5" y1="9.6049" x2="78.5" y2="45.092" gradientTransform="matrix(1 0 0 -1 0 62)">
		<stop  offset="0" style="stop-color:#D9BDA0"/>
		<stop  offset="0.3799" style="stop-color:#CBAB8B"/>
		<stop  offset="1" style="stop-color:#A6896F"/>
	</linearGradient>
	<path class="st1" d="M74.7,17v34.8h7.6V20.6c0-2-1.6-3.5-3.5-3.5h-4.1V17z"/>
	
		<linearGradient id="SVGID_3_" gradientUnits="userSpaceOnUse" x1="105.6" y1="9.6049" x2="105.6" y2="45.092" gradientTransform="matrix(1 0 0 -1 0 62)">
		<stop  offset="0" style="stop-color:#D9BDA0"/>
		<stop  offset="0.3799" style="stop-color:#CBAB8B"/>
		<stop  offset="1" style="stop-color:#A6896F"/>
	</linearGradient>
	<path class="st2" d="M101.8,20.6v31.2h7.6V17h-4.1C103.4,17,101.8,18.6,101.8,20.6z"/>
	
		<linearGradient id="SVGID_4_" gradientUnits="userSpaceOnUse" x1="89.2719" y1="68.7762" x2="99.8652" y2="-31.2711" gradientTransform="matrix(1 0 0 -1 0 62)">
		<stop  offset="0" style="stop-color:#D9BDA0"/>
		<stop  offset="0.3799" style="stop-color:#CBAB8B"/>
		<stop  offset="1" style="stop-color:#A6896F"/>
	</linearGradient>
	<path class="st3" d="M88,45.5h7.6l13.5-28.4h-5.4c-1.3,0-2.6,0.8-3.2,2l-8.7,17.5l-8.7-17.5c-0.6-1.2-1.8-2-3.2-2h-5.4L88,45.5z"/>
	
		<linearGradient id="SVGID_5_" gradientUnits="userSpaceOnUse" x1="33.7351" y1="7.2478" x2="17.655" y2="27.2093" gradientTransform="matrix(1 0 0 -1 0 62)">
		<stop  offset="0" style="stop-color:#D9BDA0"/>
		<stop  offset="0.3799" style="stop-color:#CBAB8B"/>
		<stop  offset="1" style="stop-color:#A6896F"/>
	</linearGradient>
	<polygon class="st4" points="36.6,51.9 20.8,33 15.4,38.4 26.6,51.9 	"/>
	
		<linearGradient id="SVGID_6_" gradientUnits="userSpaceOnUse" x1="6" y1="55.0728" x2="6" y2="12.3773" gradientTransform="matrix(1 0 0 -1 0 62)">
		<stop  offset="0" style="stop-color:#D9BDA0"/>
		<stop  offset="0.3799" style="stop-color:#CBAB8B"/>
		<stop  offset="1" style="stop-color:#A6896F"/>
	</linearGradient>
	<path class="st5" d="M9.8,7.1l-6.6,6.7c-0.7,0.7-1,1.6-1,2.5v35.5l7.6-7.7V7.1z"/>
	
		<linearGradient id="SVGID_7_" gradientUnits="userSpaceOnUse" x1="15.4607" y1="65.3271" x2="28.175" y2="-54.7527" gradientTransform="matrix(1 0 0 -1 0 62)">
		<stop  offset="0" style="stop-color:#D9BDA0"/>
		<stop  offset="0.3799" style="stop-color:#CBAB8B"/>
		<stop  offset="1" style="stop-color:#A6896F"/>
	</linearGradient>
	<path class="st6" d="M25,17.9L2.2,41v10.8l34.5-34.9h-9.2C26.5,16.9,25.6,17.3,25,17.9z"/>
	
		<linearGradient id="SVGID_8_" gradientUnits="userSpaceOnUse" x1="47.0636" y1="20.05" x2="66.4706" y2="20.05" gradientTransform="matrix(1 0 0 -1 0 62)">
		<stop  offset="0" style="stop-color:#D9BDA0"/>
		<stop  offset="0.3799" style="stop-color:#CBAB8B"/>
		<stop  offset="1" style="stop-color:#A6896F"/>
	</linearGradient>
	<path class="st7" d="M62.3,38.4H49.8l1.8,4.8c0.5,1.4,1.8,2.3,3.3,2.3h10.4L62.3,38.4z"/>
	
		<linearGradient id="SVGID_9_" gradientUnits="userSpaceOnUse" x1="47.3811" y1="68.9347" x2="60.1493" y2="-51.6543" gradientTransform="matrix(1 0 0 -1 0 62)">
		<stop  offset="0" style="stop-color:#D9BDA0"/>
		<stop  offset="0.3799" style="stop-color:#CBAB8B"/>
		<stop  offset="1" style="stop-color:#A6896F"/>
	</linearGradient>
	<path class="st8" d="M55,17.2h-5.2L36.3,51.8h7.6L53.6,26l9.7,25.8h7.6L58.3,19.4C57.7,18.1,56.4,17.2,55,17.2z"/>
</g>
</svg>
